<mxfile host="app.diagrams.net" modified="2023-12-08T00:18:00.733Z" agent="Mozilla/5.0 (X11; Linux x86_64; rv:120.0) Gecko/20100101 Firefox/120.0" etag="pQe8pcSU9xtGshaKGJQd" version="22.1.7" type="device" pages="5">
  <diagram id="VqG2Ku5d2gkmoplqg593" name="AltaWorkers">
    <mxGraphModel dx="1695" dy="427" grid="1" gridSize="10" guides="1" tooltips="1" connect="1" arrows="1" fold="1" page="1" pageScale="1" pageWidth="827" pageHeight="1169" math="0" shadow="0">
      <root>
        <mxCell id="0" />
        <mxCell id="1" parent="0" />
        <mxCell id="R0oKlFJ6LNsI7inT2vGT-1" value="" style="rounded=0;whiteSpace=wrap;html=1;fillColor=none;" parent="1" vertex="1">
          <mxGeometry x="-20" y="90" width="700" height="430" as="geometry" />
        </mxCell>
        <mxCell id="nZQoTGkVUXVS9MJFu_9y-6" style="edgeStyle=orthogonalEdgeStyle;rounded=0;orthogonalLoop=1;jettySize=auto;html=1;exitX=0.5;exitY=1;exitDx=0;exitDy=0;dashed=1;dashPattern=12 12;endArrow=none;endFill=0;" parent="1" source="nZQoTGkVUXVS9MJFu_9y-1" edge="1">
          <mxGeometry relative="1" as="geometry">
            <mxPoint x="160" y="500" as="targetPoint" />
          </mxGeometry>
        </mxCell>
        <mxCell id="nZQoTGkVUXVS9MJFu_9y-1" value="Parser" style="rounded=0;whiteSpace=wrap;html=1;" parent="1" vertex="1">
          <mxGeometry x="100" y="110" width="120" height="60" as="geometry" />
        </mxCell>
        <mxCell id="nZQoTGkVUXVS9MJFu_9y-2" value="Worker | Agregador" style="rounded=0;whiteSpace=wrap;html=1;" parent="1" vertex="1">
          <mxGeometry x="310" y="110" width="120" height="60" as="geometry" />
        </mxCell>
        <mxCell id="nZQoTGkVUXVS9MJFu_9y-5" value="Rabbit" style="rounded=0;whiteSpace=wrap;html=1;" parent="1" vertex="1">
          <mxGeometry x="520" y="110" width="120" height="60" as="geometry" />
        </mxCell>
        <mxCell id="nZQoTGkVUXVS9MJFu_9y-7" style="edgeStyle=orthogonalEdgeStyle;rounded=0;orthogonalLoop=1;jettySize=auto;html=1;exitX=0.5;exitY=1;exitDx=0;exitDy=0;dashed=1;dashPattern=12 12;endArrow=none;endFill=0;" parent="1" edge="1">
          <mxGeometry relative="1" as="geometry">
            <mxPoint x="370" y="490" as="targetPoint" />
            <mxPoint x="369.5" y="170" as="sourcePoint" />
          </mxGeometry>
        </mxCell>
        <mxCell id="nZQoTGkVUXVS9MJFu_9y-10" style="edgeStyle=orthogonalEdgeStyle;rounded=0;orthogonalLoop=1;jettySize=auto;html=1;exitX=0.5;exitY=1;exitDx=0;exitDy=0;dashed=1;dashPattern=12 12;endArrow=none;endFill=0;" parent="1" edge="1">
          <mxGeometry relative="1" as="geometry">
            <mxPoint x="580" y="490" as="targetPoint" />
            <mxPoint x="579.5" y="170" as="sourcePoint" />
          </mxGeometry>
        </mxCell>
        <mxCell id="nZQoTGkVUXVS9MJFu_9y-30" value="" style="endArrow=classic;html=1;rounded=0;" parent="1" edge="1">
          <mxGeometry width="50" height="50" relative="1" as="geometry">
            <mxPoint x="170" y="240" as="sourcePoint" />
            <mxPoint x="560" y="240" as="targetPoint" />
          </mxGeometry>
        </mxCell>
        <mxCell id="nZQoTGkVUXVS9MJFu_9y-31" value="Esperar Workers" style="text;html=1;align=center;verticalAlign=middle;resizable=0;points=[];autosize=1;strokeColor=none;fillColor=none;" parent="1" vertex="1">
          <mxGeometry x="180" y="208" width="120" height="30" as="geometry" />
        </mxCell>
        <mxCell id="nZQoTGkVUXVS9MJFu_9y-32" value="" style="endArrow=classic;html=1;rounded=0;" parent="1" edge="1">
          <mxGeometry width="50" height="50" relative="1" as="geometry">
            <mxPoint x="380" y="280" as="sourcePoint" />
            <mxPoint x="560" y="280" as="targetPoint" />
          </mxGeometry>
        </mxCell>
        <mxCell id="nZQoTGkVUXVS9MJFu_9y-34" value="Ready" style="text;html=1;align=center;verticalAlign=middle;resizable=0;points=[];autosize=1;strokeColor=none;fillColor=none;" parent="1" vertex="1">
          <mxGeometry x="440" y="248" width="60" height="30" as="geometry" />
        </mxCell>
        <mxCell id="nZQoTGkVUXVS9MJFu_9y-35" value="" style="endArrow=classic;html=1;rounded=0;dashed=1;" parent="1" edge="1">
          <mxGeometry width="50" height="50" relative="1" as="geometry">
            <mxPoint x="560" y="320" as="sourcePoint" />
            <mxPoint x="170" y="320" as="targetPoint" />
          </mxGeometry>
        </mxCell>
        <mxCell id="nZQoTGkVUXVS9MJFu_9y-36" value="Ready" style="text;html=1;align=center;verticalAlign=middle;resizable=0;points=[];autosize=1;strokeColor=none;fillColor=none;" parent="1" vertex="1">
          <mxGeometry x="200" y="288" width="60" height="30" as="geometry" />
        </mxCell>
        <mxCell id="nZQoTGkVUXVS9MJFu_9y-37" value="Loop" style="shape=umlFrame;whiteSpace=wrap;html=1;pointerEvents=0;" parent="1" vertex="1">
          <mxGeometry x="10" y="200" width="640" height="170" as="geometry" />
        </mxCell>
        <mxCell id="nZQoTGkVUXVS9MJFu_9y-38" value="Workers = N" style="text;html=1;align=center;verticalAlign=middle;resizable=0;points=[];autosize=1;strokeColor=none;fillColor=none;" parent="1" vertex="1">
          <mxGeometry x="10" y="230" width="90" height="30" as="geometry" />
        </mxCell>
        <mxCell id="nZQoTGkVUXVS9MJFu_9y-39" value="" style="endArrow=classic;html=1;rounded=0;" parent="1" edge="1">
          <mxGeometry width="50" height="50" relative="1" as="geometry">
            <mxPoint x="180" y="410" as="sourcePoint" />
            <mxPoint x="180" y="480" as="targetPoint" />
            <Array as="points">
              <mxPoint x="240" y="410" />
              <mxPoint x="240" y="480" />
            </Array>
          </mxGeometry>
        </mxCell>
        <mxCell id="nZQoTGkVUXVS9MJFu_9y-40" value="AtenderCliente" style="text;html=1;align=center;verticalAlign=middle;resizable=0;points=[];autosize=1;strokeColor=none;fillColor=none;" parent="1" vertex="1">
          <mxGeometry x="170" y="380" width="100" height="30" as="geometry" />
        </mxCell>
      </root>
    </mxGraphModel>
  </diagram>
  <diagram name="ConeccionYEnvioDeDatos" id="5mPKHPaQZCeQV9riieyF">
    <mxGraphModel dx="1695" dy="427" grid="1" gridSize="10" guides="1" tooltips="1" connect="1" arrows="1" fold="1" page="1" pageScale="1" pageWidth="827" pageHeight="1169" math="0" shadow="0">
      <root>
        <mxCell id="0" />
        <mxCell id="1" parent="0" />
        <mxCell id="oAuqXcb8lqKwa1Rgyl03-19" style="edgeStyle=orthogonalEdgeStyle;rounded=0;orthogonalLoop=1;jettySize=auto;html=1;exitX=0.5;exitY=1;exitDx=0;exitDy=0;endArrow=none;endFill=0;dashed=1;dashPattern=12 12;" parent="1" source="oAuqXcb8lqKwa1Rgyl03-16" edge="1">
          <mxGeometry relative="1" as="geometry">
            <mxPoint x="115" y="1100" as="targetPoint" />
            <Array as="points">
              <mxPoint x="115" y="1100" />
            </Array>
          </mxGeometry>
        </mxCell>
        <mxCell id="oAuqXcb8lqKwa1Rgyl03-16" value="Cliente" style="rounded=0;whiteSpace=wrap;html=1;" parent="1" vertex="1">
          <mxGeometry x="55" y="240" width="120" height="60" as="geometry" />
        </mxCell>
        <mxCell id="oAuqXcb8lqKwa1Rgyl03-20" style="edgeStyle=orthogonalEdgeStyle;rounded=0;orthogonalLoop=1;jettySize=auto;html=1;exitX=0.5;exitY=1;exitDx=0;exitDy=0;dashed=1;dashPattern=12 12;endArrow=none;endFill=0;" parent="1" source="oAuqXcb8lqKwa1Rgyl03-17" edge="1">
          <mxGeometry relative="1" as="geometry">
            <mxPoint x="409" y="1100" as="targetPoint" />
            <Array as="points">
              <mxPoint x="409" y="1100" />
            </Array>
          </mxGeometry>
        </mxCell>
        <mxCell id="oAuqXcb8lqKwa1Rgyl03-17" value="Interface" style="rounded=0;whiteSpace=wrap;html=1;" parent="1" vertex="1">
          <mxGeometry x="349" y="240" width="120" height="60" as="geometry" />
        </mxCell>
        <mxCell id="oAuqXcb8lqKwa1Rgyl03-21" style="edgeStyle=orthogonalEdgeStyle;rounded=0;orthogonalLoop=1;jettySize=auto;html=1;exitX=0.5;exitY=1;exitDx=0;exitDy=0;dashed=1;dashPattern=12 12;endArrow=none;endFill=0;" parent="1" source="oAuqXcb8lqKwa1Rgyl03-18" edge="1">
          <mxGeometry relative="1" as="geometry">
            <mxPoint x="695" y="1100" as="targetPoint" />
            <Array as="points">
              <mxPoint x="695" y="1100" />
            </Array>
          </mxGeometry>
        </mxCell>
        <mxCell id="oAuqXcb8lqKwa1Rgyl03-18" value="Rabbit" style="rounded=0;whiteSpace=wrap;html=1;" parent="1" vertex="1">
          <mxGeometry x="635" y="240" width="120" height="60" as="geometry" />
        </mxCell>
        <mxCell id="oAuqXcb8lqKwa1Rgyl03-22" value="" style="endArrow=classic;html=1;rounded=0;" parent="1" edge="1">
          <mxGeometry width="50" height="50" relative="1" as="geometry">
            <mxPoint x="130" y="502" as="sourcePoint" />
            <mxPoint x="400" y="502" as="targetPoint" />
          </mxGeometry>
        </mxCell>
        <mxCell id="oAuqXcb8lqKwa1Rgyl03-23" value="Hello | Reconnect + ID" style="text;html=1;align=center;verticalAlign=middle;resizable=0;points=[];autosize=1;strokeColor=none;fillColor=none;" parent="1" vertex="1">
          <mxGeometry x="185" y="470" width="150" height="30" as="geometry" />
        </mxCell>
        <mxCell id="oAuqXcb8lqKwa1Rgyl03-24" value="" style="endArrow=classic;html=1;rounded=0;dashed=1;" parent="1" edge="1">
          <mxGeometry width="50" height="50" relative="1" as="geometry">
            <mxPoint x="400" y="542" as="sourcePoint" />
            <mxPoint x="130" y="542" as="targetPoint" />
          </mxGeometry>
        </mxCell>
        <mxCell id="oAuqXcb8lqKwa1Rgyl03-25" value="ID | Input Offset" style="text;html=1;align=center;verticalAlign=middle;resizable=0;points=[];autosize=1;strokeColor=none;fillColor=none;" parent="1" vertex="1">
          <mxGeometry x="205" y="510" width="110" height="30" as="geometry" />
        </mxCell>
        <mxCell id="oAuqXcb8lqKwa1Rgyl03-26" value="Loop" style="shape=umlFrame;whiteSpace=wrap;html=1;pointerEvents=0;" parent="1" vertex="1">
          <mxGeometry x="-25" y="620" width="780" height="140" as="geometry" />
        </mxCell>
        <mxCell id="oAuqXcb8lqKwa1Rgyl03-27" value="" style="endArrow=classic;html=1;rounded=0;" parent="1" edge="1">
          <mxGeometry width="50" height="50" relative="1" as="geometry">
            <mxPoint x="125" y="330" as="sourcePoint" />
            <mxPoint x="125" y="400" as="targetPoint" />
            <Array as="points">
              <mxPoint x="205" y="330" />
              <mxPoint x="205" y="400" />
            </Array>
          </mxGeometry>
        </mxCell>
        <mxCell id="oAuqXcb8lqKwa1Rgyl03-28" value="Connect" style="text;html=1;align=center;verticalAlign=middle;resizable=0;points=[];autosize=1;strokeColor=none;fillColor=none;" parent="1" vertex="1">
          <mxGeometry x="130" y="308" width="70" height="30" as="geometry" />
        </mxCell>
        <mxCell id="oAuqXcb8lqKwa1Rgyl03-29" value="" style="endArrow=classic;html=1;rounded=0;" parent="1" edge="1">
          <mxGeometry width="50" height="50" relative="1" as="geometry">
            <mxPoint x="415" y="330" as="sourcePoint" />
            <mxPoint x="415" y="398" as="targetPoint" />
            <Array as="points">
              <mxPoint x="485" y="330" />
              <mxPoint x="485" y="398" />
            </Array>
          </mxGeometry>
        </mxCell>
        <mxCell id="oAuqXcb8lqKwa1Rgyl03-30" value="Accept" style="text;html=1;align=center;verticalAlign=middle;resizable=0;points=[];autosize=1;strokeColor=none;fillColor=none;" parent="1" vertex="1">
          <mxGeometry x="425" y="308" width="60" height="30" as="geometry" />
        </mxCell>
        <mxCell id="oAuqXcb8lqKwa1Rgyl03-32" value="" style="endArrow=classic;html=1;rounded=0;" parent="1" edge="1">
          <mxGeometry width="50" height="50" relative="1" as="geometry">
            <mxPoint x="125" y="680" as="sourcePoint" />
            <mxPoint x="395" y="680" as="targetPoint" />
          </mxGeometry>
        </mxCell>
        <mxCell id="oAuqXcb8lqKwa1Rgyl03-33" value="Coordenadas" style="text;html=1;align=center;verticalAlign=middle;resizable=0;points=[];autosize=1;strokeColor=none;fillColor=none;" parent="1" vertex="1">
          <mxGeometry x="205" y="648" width="100" height="30" as="geometry" />
        </mxCell>
        <mxCell id="oAuqXcb8lqKwa1Rgyl03-34" value="" style="endArrow=classic;html=1;rounded=0;" parent="1" edge="1">
          <mxGeometry width="50" height="50" relative="1" as="geometry">
            <mxPoint x="415" y="720" as="sourcePoint" />
            <mxPoint x="685" y="720" as="targetPoint" />
          </mxGeometry>
        </mxCell>
        <mxCell id="oAuqXcb8lqKwa1Rgyl03-35" value="Coordenadas, distanceFilter" style="text;html=1;align=center;verticalAlign=middle;resizable=0;points=[];autosize=1;strokeColor=none;fillColor=none;" parent="1" vertex="1">
          <mxGeometry x="470" y="688" width="170" height="30" as="geometry" />
        </mxCell>
        <mxCell id="oAuqXcb8lqKwa1Rgyl03-37" value="" style="endArrow=classic;html=1;rounded=0;" parent="1" edge="1">
          <mxGeometry width="50" height="50" relative="1" as="geometry">
            <mxPoint x="125" y="840" as="sourcePoint" />
            <mxPoint x="400" y="840" as="targetPoint" />
          </mxGeometry>
        </mxCell>
        <mxCell id="oAuqXcb8lqKwa1Rgyl03-38" value="Vuelo" style="text;html=1;align=center;verticalAlign=middle;resizable=0;points=[];autosize=1;strokeColor=none;fillColor=none;" parent="1" vertex="1">
          <mxGeometry x="230" y="808" width="50" height="30" as="geometry" />
        </mxCell>
        <mxCell id="oAuqXcb8lqKwa1Rgyl03-40" value="" style="endArrow=classic;html=1;rounded=0;" parent="1" edge="1">
          <mxGeometry width="50" height="50" relative="1" as="geometry">
            <mxPoint x="425" y="880" as="sourcePoint" />
            <mxPoint x="685" y="880" as="targetPoint" />
          </mxGeometry>
        </mxCell>
        <mxCell id="oAuqXcb8lqKwa1Rgyl03-47" value="Vuelo, demuxFilter" style="text;html=1;align=center;verticalAlign=middle;resizable=0;points=[];autosize=1;strokeColor=none;fillColor=none;" parent="1" vertex="1">
          <mxGeometry x="450" y="850" width="130" height="30" as="geometry" />
        </mxCell>
        <mxCell id="oAuqXcb8lqKwa1Rgyl03-52" value="QuedanCoordenadas" style="text;html=1;align=center;verticalAlign=middle;resizable=0;points=[];autosize=1;strokeColor=none;fillColor=none;" parent="1" vertex="1">
          <mxGeometry x="-25" y="648" width="140" height="30" as="geometry" />
        </mxCell>
        <mxCell id="oAuqXcb8lqKwa1Rgyl03-53" value="Loop" style="shape=umlFrame;whiteSpace=wrap;html=1;pointerEvents=0;" parent="1" vertex="1">
          <mxGeometry x="-25" y="798" width="780" height="122" as="geometry" />
        </mxCell>
        <mxCell id="oAuqXcb8lqKwa1Rgyl03-67" value="" style="endArrow=classic;html=1;rounded=0;edgeStyle=orthogonalEdgeStyle;" parent="1" edge="1">
          <mxGeometry width="50" height="50" relative="1" as="geometry">
            <mxPoint x="420" y="1000" as="sourcePoint" />
            <mxPoint x="690" y="1000" as="targetPoint" />
            <Array as="points">
              <mxPoint x="670" y="1000" />
            </Array>
          </mxGeometry>
        </mxCell>
        <mxCell id="oAuqXcb8lqKwa1Rgyl03-68" value="EOF" style="text;html=1;align=center;verticalAlign=middle;resizable=0;points=[];autosize=1;strokeColor=none;fillColor=none;" parent="1" vertex="1">
          <mxGeometry x="535" y="970" width="50" height="30" as="geometry" />
        </mxCell>
        <mxCell id="a6IVe27FsR_gHJ2pBBRQ-2" value="" style="endArrow=classic;html=1;rounded=0;" edge="1" parent="1">
          <mxGeometry width="50" height="50" relative="1" as="geometry">
            <mxPoint x="400" y="1039" as="sourcePoint" />
            <mxPoint x="120" y="1039" as="targetPoint" />
          </mxGeometry>
        </mxCell>
        <mxCell id="a6IVe27FsR_gHJ2pBBRQ-3" value="FIN" style="text;html=1;align=center;verticalAlign=middle;resizable=0;points=[];autosize=1;strokeColor=none;fillColor=none;" vertex="1" parent="1">
          <mxGeometry x="250" y="1009" width="40" height="30" as="geometry" />
        </mxCell>
        <mxCell id="a6IVe27FsR_gHJ2pBBRQ-4" value="Loop" style="shape=umlFrame;whiteSpace=wrap;html=1;pointerEvents=0;" vertex="1" parent="1">
          <mxGeometry x="-50" y="430" width="830" height="510" as="geometry" />
        </mxCell>
        <mxCell id="a6IVe27FsR_gHJ2pBBRQ-5" value="Falla la conexión" style="text;html=1;align=center;verticalAlign=middle;resizable=0;points=[];autosize=1;strokeColor=none;fillColor=none;" vertex="1" parent="1">
          <mxGeometry x="-30" y="500" width="120" height="30" as="geometry" />
        </mxCell>
        <mxCell id="a6IVe27FsR_gHJ2pBBRQ-6" value="Quedan Vuelos" style="text;html=1;align=center;verticalAlign=middle;resizable=0;points=[];autosize=1;strokeColor=none;fillColor=none;" vertex="1" parent="1">
          <mxGeometry x="-25" y="830" width="110" height="30" as="geometry" />
        </mxCell>
      </root>
    </mxGraphModel>
  </diagram>
  <diagram id="-kJdZa7GoTEb_94TG8q-" name="EnvioDeResultadosYFin">
    <mxGraphModel dx="1695" dy="1596" grid="1" gridSize="10" guides="1" tooltips="1" connect="1" arrows="1" fold="1" page="1" pageScale="1" pageWidth="827" pageHeight="1169" math="0" shadow="0">
      <root>
        <mxCell id="0" />
        <mxCell id="1" parent="0" />
        <mxCell id="zQEodcKI44ZFpxssfe19-1" value="" style="rounded=0;whiteSpace=wrap;html=1;fillColor=none;" parent="1" vertex="1">
          <mxGeometry x="-20" y="-150" width="750" height="700" as="geometry" />
        </mxCell>
        <mxCell id="IRB8vnWAVkFq2MwVSn2H-4" style="edgeStyle=orthogonalEdgeStyle;rounded=0;orthogonalLoop=1;jettySize=auto;html=1;dashed=1;dashPattern=12 12;endArrow=none;endFill=0;" parent="1" edge="1" source="IRB8vnWAVkFq2MwVSn2H-1">
          <mxGeometry relative="1" as="geometry">
            <mxPoint x="150" y="520" as="targetPoint" />
            <mxPoint x="129.5" y="120" as="sourcePoint" />
          </mxGeometry>
        </mxCell>
        <mxCell id="IRB8vnWAVkFq2MwVSn2H-1" value="Cliente" style="rounded=0;whiteSpace=wrap;html=1;" parent="1" vertex="1">
          <mxGeometry x="90" y="-120" width="120" height="60" as="geometry" />
        </mxCell>
        <mxCell id="IRB8vnWAVkFq2MwVSn2H-5" style="edgeStyle=orthogonalEdgeStyle;rounded=0;orthogonalLoop=1;jettySize=auto;html=1;exitX=0.5;exitY=1;exitDx=0;exitDy=0;dashed=1;dashPattern=12 12;endArrow=none;endFill=0;" parent="1" source="IRB8vnWAVkFq2MwVSn2H-2" edge="1">
          <mxGeometry relative="1" as="geometry">
            <mxPoint x="390" y="520" as="targetPoint" />
          </mxGeometry>
        </mxCell>
        <mxCell id="IRB8vnWAVkFq2MwVSn2H-2" value="Agregador" style="rounded=0;whiteSpace=wrap;html=1;" parent="1" vertex="1">
          <mxGeometry x="330" y="-120" width="120" height="60" as="geometry" />
        </mxCell>
        <mxCell id="IRB8vnWAVkFq2MwVSn2H-6" style="edgeStyle=orthogonalEdgeStyle;rounded=0;orthogonalLoop=1;jettySize=auto;html=1;exitX=0.5;exitY=1;exitDx=0;exitDy=0;dashed=1;dashPattern=12 12;endArrow=none;endFill=0;" parent="1" source="IRB8vnWAVkFq2MwVSn2H-3" edge="1">
          <mxGeometry relative="1" as="geometry">
            <mxPoint x="630" y="520" as="targetPoint" />
          </mxGeometry>
        </mxCell>
        <mxCell id="IRB8vnWAVkFq2MwVSn2H-3" value="RabbitMQ" style="rounded=0;whiteSpace=wrap;html=1;" parent="1" vertex="1">
          <mxGeometry x="570" y="-120" width="120" height="60" as="geometry" />
        </mxCell>
        <mxCell id="IRB8vnWAVkFq2MwVSn2H-7" value="" style="endArrow=classic;html=1;rounded=0;" parent="1" edge="1">
          <mxGeometry width="50" height="50" relative="1" as="geometry">
            <mxPoint x="400" y="202" as="sourcePoint" />
            <mxPoint x="620" y="202" as="targetPoint" />
          </mxGeometry>
        </mxCell>
        <mxCell id="VCpYg2_XOxGH9dw9qjkm-1" value="" style="endArrow=none;html=1;rounded=0;startArrow=classic;startFill=1;endFill=0;dashed=1;" parent="1" edge="1">
          <mxGeometry width="50" height="50" relative="1" as="geometry">
            <mxPoint x="400" y="242" as="sourcePoint" />
            <mxPoint x="620" y="242" as="targetPoint" />
          </mxGeometry>
        </mxCell>
        <mxCell id="VCpYg2_XOxGH9dw9qjkm-2" value="EsperarResultados, Results" style="text;html=1;align=center;verticalAlign=middle;resizable=0;points=[];autosize=1;strokeColor=none;fillColor=none;" parent="1" vertex="1">
          <mxGeometry x="415" y="170" width="170" height="30" as="geometry" />
        </mxCell>
        <mxCell id="VCpYg2_XOxGH9dw9qjkm-3" value="Resultado" style="text;html=1;align=center;verticalAlign=middle;resizable=0;points=[];autosize=1;strokeColor=none;fillColor=none;" parent="1" vertex="1">
          <mxGeometry x="460" y="210" width="80" height="30" as="geometry" />
        </mxCell>
        <mxCell id="VCpYg2_XOxGH9dw9qjkm-4" value="" style="endArrow=classic;html=1;rounded=0;dashed=1;" parent="1" edge="1">
          <mxGeometry width="50" height="50" relative="1" as="geometry">
            <mxPoint x="380" y="262" as="sourcePoint" />
            <mxPoint x="160" y="262" as="targetPoint" />
          </mxGeometry>
        </mxCell>
        <mxCell id="VCpYg2_XOxGH9dw9qjkm-5" value="Resultado" style="text;html=1;align=center;verticalAlign=middle;resizable=0;points=[];autosize=1;strokeColor=none;fillColor=none;" parent="1" vertex="1">
          <mxGeometry x="210" y="230" width="80" height="30" as="geometry" />
        </mxCell>
        <mxCell id="VCpYg2_XOxGH9dw9qjkm-6" value="" style="endArrow=classic;html=1;rounded=0;" parent="1" edge="1">
          <mxGeometry width="50" height="50" relative="1" as="geometry">
            <mxPoint x="170" y="302" as="sourcePoint" />
            <mxPoint x="170" y="372" as="targetPoint" />
            <Array as="points">
              <mxPoint x="240" y="302" />
              <mxPoint x="240" y="372" />
            </Array>
          </mxGeometry>
        </mxCell>
        <mxCell id="VCpYg2_XOxGH9dw9qjkm-7" value="guardarResultado" style="text;html=1;align=center;verticalAlign=middle;resizable=0;points=[];autosize=1;strokeColor=none;fillColor=none;" parent="1" vertex="1">
          <mxGeometry x="150" y="270" width="120" height="30" as="geometry" />
        </mxCell>
        <mxCell id="VCpYg2_XOxGH9dw9qjkm-8" value="Loop" style="shape=umlFrame;whiteSpace=wrap;html=1;pointerEvents=0;" parent="1" vertex="1">
          <mxGeometry x="20" y="-50" width="680" height="470" as="geometry" />
        </mxCell>
        <mxCell id="VCpYg2_XOxGH9dw9qjkm-9" value="&lt;div&gt;Resultados&lt;/div&gt;" style="text;html=1;align=center;verticalAlign=middle;resizable=0;points=[];autosize=1;strokeColor=none;fillColor=none;" parent="1" vertex="1">
          <mxGeometry x="60" y="185" width="90" height="30" as="geometry" />
        </mxCell>
        <mxCell id="PO49WvavZn8Wq0iQ-6j3-2" value="" style="endArrow=classic;html=1;rounded=0;" edge="1" parent="1">
          <mxGeometry width="50" height="50" relative="1" as="geometry">
            <mxPoint x="380" y="480" as="sourcePoint" />
            <mxPoint x="160" y="480" as="targetPoint" />
          </mxGeometry>
        </mxCell>
        <mxCell id="PO49WvavZn8Wq0iQ-6j3-3" value="EOF" style="text;html=1;align=center;verticalAlign=middle;resizable=0;points=[];autosize=1;strokeColor=none;fillColor=none;" vertex="1" parent="1">
          <mxGeometry x="250" y="450" width="50" height="30" as="geometry" />
        </mxCell>
        <mxCell id="GU5yvCpN1c5cn35nKRPk-1" value="" style="endArrow=classic;html=1;rounded=0;" edge="1" parent="1">
          <mxGeometry width="50" height="50" relative="1" as="geometry">
            <mxPoint x="160" y="-20" as="sourcePoint" />
            <mxPoint x="160" y="50" as="targetPoint" />
            <Array as="points">
              <mxPoint x="230" y="-20" />
              <mxPoint x="230" y="50" />
            </Array>
          </mxGeometry>
        </mxCell>
        <mxCell id="GU5yvCpN1c5cn35nKRPk-2" value="Connect" style="text;html=1;align=center;verticalAlign=middle;resizable=0;points=[];autosize=1;strokeColor=none;fillColor=none;" vertex="1" parent="1">
          <mxGeometry x="160" y="-50" width="70" height="30" as="geometry" />
        </mxCell>
        <mxCell id="GU5yvCpN1c5cn35nKRPk-3" value="" style="endArrow=classic;html=1;rounded=0;" edge="1" parent="1">
          <mxGeometry width="50" height="50" relative="1" as="geometry">
            <mxPoint x="400" y="-20" as="sourcePoint" />
            <mxPoint x="400" y="50" as="targetPoint" />
            <Array as="points">
              <mxPoint x="470" y="-20" />
              <mxPoint x="470" y="50" />
            </Array>
          </mxGeometry>
        </mxCell>
        <mxCell id="GU5yvCpN1c5cn35nKRPk-4" value="Accept" style="text;html=1;align=center;verticalAlign=middle;resizable=0;points=[];autosize=1;strokeColor=none;fillColor=none;" vertex="1" parent="1">
          <mxGeometry x="405" y="-50" width="60" height="30" as="geometry" />
        </mxCell>
        <mxCell id="GU5yvCpN1c5cn35nKRPk-5" value="" style="endArrow=classic;html=1;rounded=0;" edge="1" parent="1">
          <mxGeometry width="50" height="50" relative="1" as="geometry">
            <mxPoint x="160" y="122" as="sourcePoint" />
            <mxPoint x="380" y="122" as="targetPoint" />
          </mxGeometry>
        </mxCell>
        <mxCell id="GU5yvCpN1c5cn35nKRPk-7" value="ID + Progress" style="text;html=1;align=center;verticalAlign=middle;resizable=0;points=[];autosize=1;strokeColor=none;fillColor=none;" vertex="1" parent="1">
          <mxGeometry x="210" y="90" width="100" height="30" as="geometry" />
        </mxCell>
        <mxCell id="GU5yvCpN1c5cn35nKRPk-9" value="Falla la conexión" style="text;html=1;align=center;verticalAlign=middle;resizable=0;points=[];autosize=1;strokeColor=none;fillColor=none;" vertex="1" parent="1">
          <mxGeometry x="20" y="-20" width="120" height="30" as="geometry" />
        </mxCell>
        <mxCell id="GU5yvCpN1c5cn35nKRPk-10" value="Loop" style="shape=umlFrame;whiteSpace=wrap;html=1;pointerEvents=0;" vertex="1" parent="1">
          <mxGeometry x="60" y="150" width="600" height="240" as="geometry" />
        </mxCell>
      </root>
    </mxGraphModel>
  </diagram>
  <diagram id="rOHN4iQ1DINNxvf1mytl" name="FinTrabajoWorkers">
    <mxGraphModel dx="868" dy="427" grid="1" gridSize="10" guides="1" tooltips="1" connect="1" arrows="1" fold="1" page="1" pageScale="1" pageWidth="827" pageHeight="1169" math="0" shadow="0">
      <root>
        <mxCell id="0" />
        <mxCell id="1" parent="0" />
        <mxCell id="pvgV414YuNtLZm6QCnAs-1" value="" style="rounded=0;whiteSpace=wrap;html=1;fillColor=none;" parent="1" vertex="1">
          <mxGeometry x="50" y="120" width="680" height="350" as="geometry" />
        </mxCell>
        <mxCell id="cty8fxMXTaqPBtQWKs1B-1" style="edgeStyle=orthogonalEdgeStyle;rounded=0;orthogonalLoop=1;jettySize=auto;html=1;exitX=0.5;exitY=1;exitDx=0;exitDy=0;dashed=1;dashPattern=12 12;endArrow=none;endFill=0;" parent="1" source="cty8fxMXTaqPBtQWKs1B-2" edge="1">
          <mxGeometry relative="1" as="geometry">
            <mxPoint x="220" y="450" as="targetPoint" />
          </mxGeometry>
        </mxCell>
        <mxCell id="cty8fxMXTaqPBtQWKs1B-2" value="Interface" style="rounded=0;whiteSpace=wrap;html=1;" parent="1" vertex="1">
          <mxGeometry x="160" y="140" width="120" height="60" as="geometry" />
        </mxCell>
        <mxCell id="cty8fxMXTaqPBtQWKs1B-3" value="Filter" style="rounded=0;whiteSpace=wrap;html=1;" parent="1" vertex="1">
          <mxGeometry x="370" y="140" width="120" height="60" as="geometry" />
        </mxCell>
        <mxCell id="cty8fxMXTaqPBtQWKs1B-4" value="&lt;div&gt;EOF Exchange&lt;/div&gt;&lt;div&gt;(RabbitMQ)&lt;br&gt;&lt;/div&gt;" style="rounded=0;whiteSpace=wrap;html=1;" parent="1" vertex="1">
          <mxGeometry x="580" y="140" width="120" height="60" as="geometry" />
        </mxCell>
        <mxCell id="cty8fxMXTaqPBtQWKs1B-5" style="edgeStyle=orthogonalEdgeStyle;rounded=0;orthogonalLoop=1;jettySize=auto;html=1;exitX=0.5;exitY=1;exitDx=0;exitDy=0;dashed=1;dashPattern=12 12;endArrow=none;endFill=0;" parent="1" edge="1">
          <mxGeometry relative="1" as="geometry">
            <mxPoint x="430" y="450" as="targetPoint" />
            <mxPoint x="429.5" y="200" as="sourcePoint" />
          </mxGeometry>
        </mxCell>
        <mxCell id="cty8fxMXTaqPBtQWKs1B-6" style="edgeStyle=orthogonalEdgeStyle;rounded=0;orthogonalLoop=1;jettySize=auto;html=1;exitX=0.5;exitY=1;exitDx=0;exitDy=0;dashed=1;dashPattern=12 12;endArrow=none;endFill=0;" parent="1" edge="1">
          <mxGeometry relative="1" as="geometry">
            <mxPoint x="640" y="450" as="targetPoint" />
            <mxPoint x="639.5" y="200" as="sourcePoint" />
          </mxGeometry>
        </mxCell>
        <mxCell id="cty8fxMXTaqPBtQWKs1B-7" value="" style="endArrow=classic;html=1;rounded=0;" parent="1" edge="1">
          <mxGeometry width="50" height="50" relative="1" as="geometry">
            <mxPoint x="230" y="270" as="sourcePoint" />
            <mxPoint x="620" y="270" as="targetPoint" />
          </mxGeometry>
        </mxCell>
        <mxCell id="cty8fxMXTaqPBtQWKs1B-8" value="Esperar (N) Workers, Results" style="text;html=1;align=center;verticalAlign=middle;resizable=0;points=[];autosize=1;strokeColor=none;fillColor=none;" parent="1" vertex="1">
          <mxGeometry x="205" y="238" width="190" height="30" as="geometry" />
        </mxCell>
        <mxCell id="cty8fxMXTaqPBtQWKs1B-9" value="" style="endArrow=classic;html=1;rounded=0;" parent="1" edge="1">
          <mxGeometry width="50" height="50" relative="1" as="geometry">
            <mxPoint x="440" y="310" as="sourcePoint" />
            <mxPoint x="620" y="310" as="targetPoint" />
          </mxGeometry>
        </mxCell>
        <mxCell id="cty8fxMXTaqPBtQWKs1B-10" value="EOF, Results" style="text;html=1;align=center;verticalAlign=middle;resizable=0;points=[];autosize=1;strokeColor=none;fillColor=none;" parent="1" vertex="1">
          <mxGeometry x="485" y="278" width="90" height="30" as="geometry" />
        </mxCell>
        <mxCell id="cty8fxMXTaqPBtQWKs1B-11" value="" style="endArrow=classic;html=1;rounded=0;dashed=1;" parent="1" edge="1">
          <mxGeometry width="50" height="50" relative="1" as="geometry">
            <mxPoint x="620" y="350" as="sourcePoint" />
            <mxPoint x="230" y="350" as="targetPoint" />
          </mxGeometry>
        </mxCell>
        <mxCell id="cty8fxMXTaqPBtQWKs1B-12" value="(N) EOF, Results" style="text;html=1;align=center;verticalAlign=middle;resizable=0;points=[];autosize=1;strokeColor=none;fillColor=none;" parent="1" vertex="1">
          <mxGeometry x="240" y="318" width="120" height="30" as="geometry" />
        </mxCell>
        <mxCell id="cty8fxMXTaqPBtQWKs1B-13" value="Loop" style="shape=umlFrame;whiteSpace=wrap;html=1;pointerEvents=0;" parent="1" vertex="1">
          <mxGeometry x="70" y="230" width="640" height="170" as="geometry" />
        </mxCell>
        <mxCell id="cty8fxMXTaqPBtQWKs1B-14" value="!AllWorkersFinished" style="text;html=1;align=center;verticalAlign=middle;resizable=0;points=[];autosize=1;strokeColor=none;fillColor=none;" parent="1" vertex="1">
          <mxGeometry x="70" y="260" width="130" height="30" as="geometry" />
        </mxCell>
      </root>
    </mxGraphModel>
  </diagram>
  <diagram id="5PHzCBSUtK2f0vOKo8Ug" name="FiltroDistancia">
    <mxGraphModel dx="1695" dy="427" grid="1" gridSize="10" guides="1" tooltips="1" connect="1" arrows="1" fold="1" page="1" pageScale="1" pageWidth="827" pageHeight="1169" math="0" shadow="0">
      <root>
        <mxCell id="0" />
        <mxCell id="1" parent="0" />
        <mxCell id="O0BD1Xq8SkF_Q8oFN8VS-1" value="" style="rounded=0;whiteSpace=wrap;html=1;fillColor=none;" parent="1" vertex="1">
          <mxGeometry x="-100" y="150" width="860" height="1150" as="geometry" />
        </mxCell>
        <mxCell id="e-VWRezE66b04hUOaH3i-3" style="edgeStyle=orthogonalEdgeStyle;rounded=0;orthogonalLoop=1;jettySize=auto;html=1;exitX=0.5;exitY=1;exitDx=0;exitDy=0;dashed=1;dashPattern=12 12;endArrow=none;endFill=0;" parent="1" source="e-VWRezE66b04hUOaH3i-1" edge="1">
          <mxGeometry relative="1" as="geometry">
            <mxPoint x="190" y="1270" as="targetPoint" />
          </mxGeometry>
        </mxCell>
        <mxCell id="e-VWRezE66b04hUOaH3i-1" value="distanceFilter" style="rounded=0;whiteSpace=wrap;html=1;" parent="1" vertex="1">
          <mxGeometry x="130" y="170" width="120" height="60" as="geometry" />
        </mxCell>
        <mxCell id="e-VWRezE66b04hUOaH3i-4" style="edgeStyle=orthogonalEdgeStyle;rounded=0;orthogonalLoop=1;jettySize=auto;html=1;exitX=0.5;exitY=1;exitDx=0;exitDy=0;dashed=1;dashPattern=12 12;endArrow=none;endFill=0;" parent="1" source="e-VWRezE66b04hUOaH3i-2" edge="1">
          <mxGeometry relative="1" as="geometry">
            <mxPoint x="500" y="1270" as="targetPoint" />
          </mxGeometry>
        </mxCell>
        <mxCell id="e-VWRezE66b04hUOaH3i-2" value="Rabbit" style="rounded=0;whiteSpace=wrap;html=1;" parent="1" vertex="1">
          <mxGeometry x="440" y="170" width="120" height="60" as="geometry" />
        </mxCell>
        <mxCell id="e-VWRezE66b04hUOaH3i-5" value="" style="endArrow=classic;html=1;rounded=0;" parent="1" edge="1">
          <mxGeometry width="50" height="50" relative="1" as="geometry">
            <mxPoint x="200" y="280" as="sourcePoint" />
            <mxPoint x="490" y="280" as="targetPoint" />
          </mxGeometry>
        </mxCell>
        <mxCell id="e-VWRezE66b04hUOaH3i-6" value="Ready, status" style="text;html=1;align=center;verticalAlign=middle;resizable=0;points=[];autosize=1;strokeColor=none;fillColor=none;" parent="1" vertex="1">
          <mxGeometry x="290" y="248" width="100" height="30" as="geometry" />
        </mxCell>
        <mxCell id="e-VWRezE66b04hUOaH3i-9" value="Loop" style="shape=umlFrame;whiteSpace=wrap;html=1;pointerEvents=0;" parent="1" vertex="1">
          <mxGeometry x="90" y="320" width="520" height="220" as="geometry" />
        </mxCell>
        <mxCell id="e-VWRezE66b04hUOaH3i-11" value="" style="endArrow=classic;html=1;rounded=0;" parent="1" edge="1">
          <mxGeometry width="50" height="50" relative="1" as="geometry">
            <mxPoint x="200" y="360" as="sourcePoint" />
            <mxPoint x="490" y="360" as="targetPoint" />
          </mxGeometry>
        </mxCell>
        <mxCell id="e-VWRezE66b04hUOaH3i-12" value="EsperarCoordenadas, distanceFilter" style="text;html=1;align=center;verticalAlign=middle;resizable=0;points=[];autosize=1;strokeColor=none;fillColor=none;" parent="1" vertex="1">
          <mxGeometry x="230" y="328" width="220" height="30" as="geometry" />
        </mxCell>
        <mxCell id="e-VWRezE66b04hUOaH3i-13" value="" style="endArrow=classic;html=1;rounded=0;dashed=1;" parent="1" edge="1">
          <mxGeometry width="50" height="50" relative="1" as="geometry">
            <mxPoint x="490" y="400" as="sourcePoint" />
            <mxPoint x="200" y="400" as="targetPoint" />
          </mxGeometry>
        </mxCell>
        <mxCell id="e-VWRezE66b04hUOaH3i-14" value="Coordenadas" style="text;html=1;align=center;verticalAlign=middle;resizable=0;points=[];autosize=1;strokeColor=none;fillColor=none;" parent="1" vertex="1">
          <mxGeometry x="290" y="368" width="100" height="30" as="geometry" />
        </mxCell>
        <mxCell id="e-VWRezE66b04hUOaH3i-15" value="" style="endArrow=classic;html=1;rounded=0;" parent="1" edge="1">
          <mxGeometry width="50" height="50" relative="1" as="geometry">
            <mxPoint x="210" y="622" as="sourcePoint" />
            <mxPoint x="490" y="622" as="targetPoint" />
          </mxGeometry>
        </mxCell>
        <mxCell id="e-VWRezE66b04hUOaH3i-16" value="" style="endArrow=classic;html=1;rounded=0;dashed=1;" parent="1" edge="1">
          <mxGeometry width="50" height="50" relative="1" as="geometry">
            <mxPoint x="490" y="662" as="sourcePoint" />
            <mxPoint x="210" y="662" as="targetPoint" />
          </mxGeometry>
        </mxCell>
        <mxCell id="e-VWRezE66b04hUOaH3i-17" value="EsperarVuelo, distanceFilter" style="text;html=1;align=center;verticalAlign=middle;resizable=0;points=[];autosize=1;strokeColor=none;fillColor=none;" parent="1" vertex="1">
          <mxGeometry x="255" y="590" width="170" height="30" as="geometry" />
        </mxCell>
        <mxCell id="e-VWRezE66b04hUOaH3i-18" value="" style="endArrow=classic;html=1;rounded=0;" parent="1" edge="1">
          <mxGeometry width="50" height="50" relative="1" as="geometry">
            <mxPoint x="200" y="440" as="sourcePoint" />
            <mxPoint x="200" y="520" as="targetPoint" />
            <Array as="points">
              <mxPoint x="280" y="440" />
              <mxPoint x="280" y="520" />
            </Array>
          </mxGeometry>
        </mxCell>
        <mxCell id="e-VWRezE66b04hUOaH3i-19" value="Guardar coordenadas" style="text;html=1;align=center;verticalAlign=middle;resizable=0;points=[];autosize=1;strokeColor=none;fillColor=none;" parent="1" vertex="1">
          <mxGeometry x="190" y="408" width="140" height="30" as="geometry" />
        </mxCell>
        <mxCell id="e-VWRezE66b04hUOaH3i-21" value="Vuelo" style="text;html=1;align=center;verticalAlign=middle;resizable=0;points=[];autosize=1;strokeColor=none;fillColor=none;" parent="1" vertex="1">
          <mxGeometry x="315" y="638" width="50" height="30" as="geometry" />
        </mxCell>
        <mxCell id="e-VWRezE66b04hUOaH3i-23" value="" style="endArrow=classic;html=1;rounded=0;" parent="1" edge="1">
          <mxGeometry width="50" height="50" relative="1" as="geometry">
            <mxPoint x="210" y="720" as="sourcePoint" />
            <mxPoint x="210" y="800" as="targetPoint" />
            <Array as="points">
              <mxPoint x="280" y="720" />
              <mxPoint x="280" y="800" />
            </Array>
          </mxGeometry>
        </mxCell>
        <mxCell id="e-VWRezE66b04hUOaH3i-24" value="CalculardistanciaDirecta" style="text;html=1;align=center;verticalAlign=middle;resizable=0;points=[];autosize=1;strokeColor=none;fillColor=none;" parent="1" vertex="1">
          <mxGeometry x="190" y="688" width="150" height="30" as="geometry" />
        </mxCell>
        <mxCell id="e-VWRezE66b04hUOaH3i-25" value="Loop" style="shape=umlFrame;whiteSpace=wrap;html=1;pointerEvents=0;" parent="1" vertex="1">
          <mxGeometry x="-70" y="580" width="800" height="490" as="geometry" />
        </mxCell>
        <mxCell id="e-VWRezE66b04hUOaH3i-26" value="alt" style="shape=umlFrame;whiteSpace=wrap;html=1;pointerEvents=0;" parent="1" vertex="1">
          <mxGeometry x="10" y="820" width="550" height="150" as="geometry" />
        </mxCell>
        <mxCell id="e-VWRezE66b04hUOaH3i-27" value="" style="endArrow=classic;html=1;rounded=0;" parent="1" edge="1">
          <mxGeometry width="50" height="50" relative="1" as="geometry">
            <mxPoint x="200" y="888" as="sourcePoint" />
            <mxPoint x="490" y="888" as="targetPoint" />
          </mxGeometry>
        </mxCell>
        <mxCell id="e-VWRezE66b04hUOaH3i-28" value="ResultadoVuelo, results" style="text;html=1;align=center;verticalAlign=middle;resizable=0;points=[];autosize=1;strokeColor=none;fillColor=none;" parent="1" vertex="1">
          <mxGeometry x="265" y="858" width="150" height="30" as="geometry" />
        </mxCell>
        <mxCell id="e-VWRezE66b04hUOaH3i-29" value="distancia &amp;gt; 4 * DistanciaDirecta" style="text;html=1;align=center;verticalAlign=middle;resizable=0;points=[];autosize=1;strokeColor=none;fillColor=none;" parent="1" vertex="1">
          <mxGeometry x="-5" y="858" width="200" height="30" as="geometry" />
        </mxCell>
        <mxCell id="e-VWRezE66b04hUOaH3i-30" value="MasVuelos" style="text;html=1;align=center;verticalAlign=middle;resizable=0;points=[];autosize=1;strokeColor=none;fillColor=none;" parent="1" vertex="1">
          <mxGeometry x="-70" y="618" width="80" height="30" as="geometry" />
        </mxCell>
        <mxCell id="e-VWRezE66b04hUOaH3i-31" value="" style="endArrow=classic;html=1;rounded=0;dashed=1;dashPattern=12 12;" parent="1" edge="1">
          <mxGeometry width="50" height="50" relative="1" as="geometry">
            <mxPoint x="490" y="1120" as="sourcePoint" />
            <mxPoint x="200" y="1120" as="targetPoint" />
          </mxGeometry>
        </mxCell>
        <mxCell id="e-VWRezE66b04hUOaH3i-32" value="EOF, distanceFilter" style="text;html=1;align=center;verticalAlign=middle;resizable=0;points=[];autosize=1;strokeColor=none;fillColor=none;" parent="1" vertex="1">
          <mxGeometry x="275" y="1088" width="130" height="30" as="geometry" />
        </mxCell>
        <mxCell id="e-VWRezE66b04hUOaH3i-33" value="" style="endArrow=classic;html=1;rounded=0;" parent="1" edge="1">
          <mxGeometry width="50" height="50" relative="1" as="geometry">
            <mxPoint x="200" y="1180" as="sourcePoint" />
            <mxPoint x="490" y="1180" as="targetPoint" />
          </mxGeometry>
        </mxCell>
        <mxCell id="e-VWRezE66b04hUOaH3i-34" value="EOF, results" style="text;html=1;align=center;verticalAlign=middle;resizable=0;points=[];autosize=1;strokeColor=none;fillColor=none;" parent="1" vertex="1">
          <mxGeometry x="295" y="1148" width="90" height="30" as="geometry" />
        </mxCell>
      </root>
    </mxGraphModel>
  </diagram>
</mxfile>
